<?xml version="1.0" encoding="utf-8"?>

<svg xmlns="http://www.w3.org/2000/svg" x="0px" y="0px"
	 viewBox="0 0 126.3 65.3" width="60" height="60" fill="#fdcf48">

<path d="M75.7,42.9c0,2.3-1.9,4.1-4.1,4.1H55c-2.3,0-4.1-1.9-4.1-4.1V26.4c0-2.3,1.9-4.1,4.1-4.1h16.5
	c2.3,0,4.1,1.9,4.1,4.1V42.9z"/>
<path d="M6.1,59.5c0.6,2.2,1,3.4,3.2,2.5l33.6-13.5c2.1-0.8,3.8-3.4,3.8-5.7V26.4c0-2.3-1.7-5-3.7-6L9.1,3.5
	c-2-1-3.5-0.7-4.1,2.2S-1.3,32.7,6.1,59.5z"/>
<path d="M120.6,59.5c-0.6,2.2-1,3.4-3.2,2.5L83.8,48.6c-2.1-0.8-3.8-3.4-3.8-5.7V26.4c0-2.3,1.7-5,3.7-6l33.9-17
	c2-1,3.5-0.7,4.1,2.2S128.1,32.7,120.6,59.5z"/>
</svg>
